<svg xmlns="http://www.w3.org/2000/svg" viewBox="8 8 251 143" shape-rendering="crispEdges">
  <rect x="8" y="8" width="251" height="143" fill="#1E1B17" rx="18"/>
  <rect x="34" y="16" width="19" height="19" fill="#FFA868"/>
  <rect x="52" y="16" width="19" height="19" fill="#FFA868"/>
  <rect x="70" y="16" width="19" height="19" fill="#FFA868"/>
  <rect x="88" y="16" width="19" height="19" fill="#FFA868"/>
  <rect x="16" y="34" width="19" height="19" fill="#FF9050"/>
  <rect x="34" y="34" width="19" height="19" fill="#FF9050"/>
  <rect x="88" y="34" width="19" height="19" fill="#FF9050"/>
  <rect x="106" y="34" width="19" height="19" fill="#FF9050"/>
  <rect x="16" y="52" width="19" height="19" fill="#FF7A38"/>
  <rect x="34" y="52" width="19" height="19" fill="#FF7A38"/>
  <rect x="88" y="52" width="19" height="19" fill="#FF7A38"/>
  <rect x="106" y="52" width="19" height="19" fill="#FF7A38"/>
  <rect x="16" y="70" width="19" height="19" fill="#EE6422"/>
  <rect x="34" y="70" width="19" height="19" fill="#EE6422"/>
  <rect x="52" y="70" width="19" height="19" fill="#EE6422"/>
  <rect x="70" y="70" width="19" height="19" fill="#EE6422"/>
  <rect x="88" y="70" width="19" height="19" fill="#EE6422"/>
  <rect x="106" y="70" width="19" height="19" fill="#EE6422"/>
  <rect x="16" y="88" width="19" height="19" fill="#DC5418"/>
  <rect x="34" y="88" width="19" height="19" fill="#DC5418"/>
  <rect x="88" y="88" width="19" height="19" fill="#DC5418"/>
  <rect x="106" y="88" width="19" height="19" fill="#DC5418"/>
  <rect x="16" y="106" width="19" height="19" fill="#CC4412"/>
  <rect x="34" y="106" width="19" height="19" fill="#CC4412"/>
  <rect x="88" y="106" width="19" height="19" fill="#CC4412"/>
  <rect x="106" y="106" width="19" height="19" fill="#CC4412"/>
  <rect x="16" y="124" width="19" height="19" fill="#BE380E"/>
  <rect x="34" y="124" width="19" height="19" fill="#BE380E"/>
  <rect x="88" y="124" width="19" height="19" fill="#BE380E"/>
  <rect x="106" y="124" width="19" height="19" fill="#BE380E"/>
  <rect x="142" y="16" width="19" height="19" fill="#FFA868"/>
  <rect x="160" y="16" width="19" height="19" fill="#FFA868"/>
  <rect x="178" y="16" width="19" height="19" fill="#FFA868"/>
  <rect x="196" y="16" width="19" height="19" fill="#FFA868"/>
  <rect x="214" y="16" width="19" height="19" fill="#FFA868"/>
  <rect x="142" y="34" width="19" height="19" fill="#FF9050"/>
  <rect x="160" y="34" width="19" height="19" fill="#FF9050"/>
  <rect x="214" y="34" width="19" height="19" fill="#FF9050"/>
  <rect x="232" y="34" width="19" height="19" fill="#FF9050"/>
  <rect x="142" y="52" width="19" height="19" fill="#FF7A38"/>
  <rect x="160" y="52" width="19" height="19" fill="#FF7A38"/>
  <rect x="214" y="52" width="19" height="19" fill="#FF7A38"/>
  <rect x="232" y="52" width="19" height="19" fill="#FF7A38"/>
  <rect x="142" y="70" width="19" height="19" fill="#EE6422"/>
  <rect x="160" y="70" width="19" height="19" fill="#EE6422"/>
  <rect x="178" y="70" width="19" height="19" fill="#EE6422"/>
  <rect x="196" y="70" width="19" height="19" fill="#EE6422"/>
  <rect x="214" y="70" width="19" height="19" fill="#EE6422"/>
  <rect x="142" y="88" width="19" height="19" fill="#DC5418"/>
  <rect x="160" y="88" width="19" height="19" fill="#DC5418"/>
  <rect x="142" y="106" width="19" height="19" fill="#CC4412"/>
  <rect x="160" y="106" width="19" height="19" fill="#CC4412"/>
  <rect x="142" y="124" width="19" height="19" fill="#BE380E"/>
  <rect x="160" y="124" width="19" height="19" fill="#BE380E"/>
</svg>